Coordinates
version=1
nRows=14
nColumns=46
inDegrees=yes

Units are S.I. units (second, meters, Newtons, ...)
Angles are in degrees.

endheader
time	pelvis_tilt	pelvis_list	pelvis_rotation	pelvis_tx	pelvis_ty	pelvis_tz	bb_angle	bb_tx	bb_ty	bb_tz	hip_flexion_r	hip_adduction_r	hip_rotation_r	knee_angle_r	knee_angle_r_beta	ankle_angle_r	subtalar_angle_r	mtp_angle_r	crank_angle_r	hip_flexion_l	hip_adduction_l	hip_rotation_l	knee_angle_l	knee_angle_l_beta	ankle_angle_l	subtalar_angle_l	mtp_angle_l	crank_angle_l	lumbar_extension	lumbar_bending	lumbar_rotation	arm_flex_r	arm_add_r	arm_rot_r	elbow_flex_r	pro_sup_r	wrist_flex_r	wrist_dev_r	arm_flex_l	arm_add_l	arm_rot_l	elbow_flex_l	pro_sup_l	wrist_flex_l	wrist_dev_l
      2.50500000	    -25.65041973	     -0.36506572	     -8.62391256	      0.40493199	      1.17048961	     -0.20141664	      0.00000000	      0.50000000	      0.00000000	      0.25000000	     61.12172570	      2.87990183	      3.10125740	     62.78356401	      1.09577991	     13.77130730	     -4.55165722	      0.00000000	      0.00000000	     45.11272291	     -8.53439516	      3.03384317	     65.30938921	      1.13986387	    -29.11697017	     -7.64053754	      0.00000000	      0.00000000	    -59.36954380	      2.77452809	     -3.28036705	     75.37927236	    -23.82023943	     62.76320208	     80.93942148	     58.12416086	      0.00000000	      0.00000000	     30.59746858	    -27.06793526	     -4.56442597	     93.48338376	     51.18173842	      0.00000000	      0.00000000
      2.51000000	    -25.62746603	      0.17876886	     -8.62139137	      0.40442126	      1.16861769	     -0.20090717	      0.00000000	      0.50000000	      0.00000000	      0.25000000	     60.14366027	      2.53052691	      3.40173414	     60.61802638	      1.05798415	     12.37681099	     -4.83624112	      0.00000000	      0.00000000	     46.25878955	     -8.24746869	      2.79105390	     68.07319358	      1.18810136	    -27.29239962	     -7.25202324	      0.00000000	      0.00000000	    -59.17538646	      2.68634682	     -6.09675245	     75.64348804	    -19.92175763	     63.09460020	     77.91206351	     57.94282198	      0.00000000	      0.00000000	     26.81947887	    -29.00696780	     -8.17559807	     96.52851710	     51.56565734	      0.00000000	      0.00000000
      2.51500000	    -25.40234384	      0.94115322	     -8.52475753	      0.40411763	      1.16700813	     -0.20104590	      0.00000000	      0.50000000	      0.00000000	      0.25000000	     58.95513542	      1.85847984	      3.85458350	     58.49416595	      1.02091579	     11.19734516	     -4.64524769	      0.00000000	      0.00000000	     47.08882918	     -7.52215087	      2.48077395	     70.62152823	      1.23257819	    -25.63971611	     -7.67013694	      0.00000000	      0.00000000	    -59.03218110	      2.26425371	     -6.84680863	     75.39541595	    -19.98635765	     63.30153808	     77.84004118	     57.97829592	      0.00000000	      0.00000000	     26.77702017	    -28.94889660	     -8.26220272	     96.42958123	     51.55243079	      0.00000000	      0.00000000
      2.52000000	    -25.29233082	      1.41839087	     -8.43313768	      0.40359715	      1.16480230	     -0.20051865	      0.00000000	      0.50000000	      0.00000000	      0.25000000	     57.78575683	      1.53409624	      4.22938646	     56.35338357	      0.98355209	      9.68806431	     -5.01799517	      0.00000000	      0.00000000	     48.04120038	     -7.24572054	      2.32303509	     73.23725728	      1.27823127	    -23.34469863	     -7.11413093	      0.00000000	      0.00000000	    -58.63920382	      2.05610684	     -8.11966328	     75.51113908	    -18.57734111	     63.93811239	     76.21223454	     58.06584350	      0.00000000	      0.00000000	     25.86720883	    -28.85442901	    -10.03055117	     96.67239555	     51.63304316	      0.00000000	      0.00000000
      2.52500000	    -25.16727564	      1.96740720	     -8.21202407	      0.40308709	      1.16265332	     -0.20053032	      0.00000000	      0.50000000	      0.00000000	      0.25000000	     56.55771763	      0.99275762	      4.61923449	     54.19772434	      0.94592874	      8.57226347	     -5.27363915	      0.00000000	      0.00000000	     49.12748267	     -6.70812656	      2.26793494	     75.88563693	      1.32445422	    -21.39224727	     -6.95232173	      0.00000000	      0.00000000	    -58.34287124	      1.78602436	     -9.08001177	     75.26583167	    -18.19449552	     63.97482831	     75.81715436	     58.07829978	      0.00000000	      0.00000000	     25.61909167	    -29.16700486	     -9.50306243	     97.06859790	     51.79755117	      0.00000000	      0.00000000
      2.53000000	    -24.97565353	      2.70078244	     -7.88754555	      0.40254839	      1.16053927	     -0.20073609	      0.00000000	      0.50000000	      0.00000000	      0.25000000	     55.27067531	      0.23014935	      5.18644973	     52.10549817	      0.90941250	      7.35824365	     -4.90538736	      0.00000000	      0.00000000	     50.21760263	     -5.79926058	      2.17637945	     78.45356461	      1.36927301	    -19.89056111	     -7.44545844	      0.00000000	      0.00000000	    -58.08064085	      1.43742099	    -10.03625308	     75.02608048	    -18.09108971	     64.03563585	     75.70872709	     58.08491584	      0.00000000	      0.00000000	     25.60277945	    -29.11111872	     -9.35312064	     97.08051861	     51.82354544	      0.00000000	      0.00000000
      2.53500000	    -24.94760286	      3.20483744	     -7.57569296	      0.40181598	      1.15792367	     -0.20055285	      0.00000000	      0.50000000	      0.00000000	      0.25000000	     54.09264486	     -0.23657154	      5.67889987	     50.01874751	      0.87299183	      6.00655864	     -5.46862718	      0.00000000	      0.00000000	     51.51638028	     -5.27240371	      2.35197205	     81.11524851	      1.41572816	    -17.72503947	     -6.52312001	      0.00000000	      0.00000000	    -57.59827833	      1.37930775	    -12.00154461	     75.09877211	    -15.73951158	     64.26587755	     73.47255821	     58.04664894	      0.00000000	      0.00000000	     23.38106578	    -29.90277156	    -11.66455784	     98.12062660	     51.96611535	      0.00000000	      0.00000000
      2.54000000	    -24.76185598	      3.89315066	     -7.13276983	      0.40133372	      1.15564262	     -0.20009965	      0.00000000	      0.50000000	      0.00000000	      0.25000000	     52.72328741	     -0.87962379	      6.38407679	     47.97049620	      0.83724310	      4.77804275	     -6.13110922	      0.00000000	      0.00000000	     52.58517467	     -4.44728180	      2.45351220	     83.54982730	      1.45821958	    -15.76851704	     -5.98882831	      0.00000000	      0.00000000	    -57.28637191	      1.03189796	    -13.08390376	     74.71763638	    -15.31110147	     64.16643827	     73.15277455	     58.04259460	      0.00000000	      0.00000000	     23.07799291	    -30.27014054	    -11.73564813	     98.10907522	     51.99153106	      0.00000000	      0.00000000
      2.54500000	    -24.57352905	      4.66457000	     -6.68032783	      0.40095898	      1.15351779	     -0.19977540	      0.00000000	      0.50000000	      0.00000000	      0.25000000	     51.33517272	     -1.64920048	      7.09642869	     45.95864499	      0.80212967	      3.56889150	     -6.54260868	      0.00000000	      0.00000000	     53.62925693	     -3.48569786	      2.48167422	     85.90595389	      1.49934174	    -13.92606721	     -5.85236809	      0.00000000	      0.00000000	    -56.94763900	      0.59513430	    -14.23082326	     74.33346870	    -14.99401261	     64.14554577	     72.91197015	     58.03212890	      0.00000000	      0.00000000	     22.81330076	    -30.57983638	    -11.74998850	     98.12941253	     52.01152112	      0.00000000	      0.00000000
      2.55000000	    -24.40181707	      5.39503249	     -6.22857789	      0.40060239	      1.15145824	     -0.19953173	      0.00000000	      0.50000000	      0.00000000	      0.25000000	     49.93032992	     -2.44283382	      7.72868353	     43.96215438	      0.76728434	      2.66841531	     -6.69085470	      0.00000000	      0.00000000	     54.75383260	     -2.57035172	      2.48738560	     88.18849168	      1.53917954	    -12.30897169	     -6.04443674	      0.00000000	      0.00000000	    -56.65625114	      0.17918978	    -15.23691235	     73.98581561	    -14.78913339	     64.08397231	     72.75096004	     57.99417176	      0.00000000	      0.00000000	     22.68726174	    -30.86071042	    -11.72604054	     98.15925355	     52.01537609	      0.00000000	      0.00000000
      2.55500000	    -24.16488819	      5.93623635	     -5.70550961	      0.40017406	      1.14976387	     -0.19885926	      0.00000000	      0.50000000	      0.00000000	      0.25000000	     48.28289334	     -3.00913866	      8.37271265	     41.81484417	      0.72980671	      1.04957473	     -8.20739538	      0.00000000	      0.00000000	     55.83252321	     -1.78643014	      2.72929787	     90.37290619	      1.57730477	    -10.47819952	     -4.94892172	      0.00000000	      0.00000000	    -56.54354559	      0.13757194	    -18.29988686	     74.30518931	    -10.98766830	     64.43420681	     69.44454818	     57.79612169	      0.00000000	      0.00000000	     18.66550032	    -33.06350067	    -15.28276031	    100.46244107	     52.22317837	      0.00000000	      0.00000000
      2.56000000	    -23.93206027	      6.61300289	     -4.99249040	      0.39991291	      1.14829045	     -0.19850364	      0.00000000	      0.50000000	      0.00000000	      0.25000000	     46.65440285	     -3.93577862	      8.78502915	     39.78666154	      0.69440824	     -0.16516238	     -8.95667665	      0.00000000	      0.00000000	     56.94487722	     -0.77054634	      2.86152305	     92.42087488	      1.61304856	     -9.04736963	     -4.58404936	      0.00000000	      0.00000000	    -56.37295174	     -0.12853704	    -19.47990439	     73.93219579	    -10.73695071	     64.46992710	     69.30649429	     57.80070708	      0.00000000	      0.00000000	     18.52475311	    -33.58681828	    -15.21056246	    100.42472043	     52.23185148	      0.00000000	      0.00000000
      2.56500000	    -23.85133061	      7.30908029	     -4.35006474	      0.39955863	      1.14660634	     -0.19808479	      0.00000000	      0.50000000	      0.00000000	      0.25000000	     45.17249923	     -4.83991689	      9.23899210	     37.80865243	      0.65988547	     -0.94006916	     -9.12443204	      0.00000000	      0.00000000	     58.24940359	      0.16127992	      2.81816762	     94.39871893	      1.64756846	     -7.79688050	     -4.71119663	      0.00000000	      0.00000000	    -56.02745333	     -0.49954238	    -20.52337962	     73.58325294	    -10.62128665	     64.50832667	     69.13948461	     57.78416718	      0.00000000	      0.00000000	     18.58030239	    -33.83234496	    -15.20057469	    100.46754367	     52.23849099	      0.00000000	      0.00000000
      2.57000000	    -23.68831691	      7.69188854	     -3.64804926	      0.39903674	      1.14523014	     -0.19730833	      0.00000000	      0.50000000	      0.00000000	      0.25000000	     43.38185008	     -5.41478433	      9.61836335	     35.57682381	      0.62093271	     -2.70231508	    -11.00069595	      0.00000000	      0.00000000	     59.56546960	      0.74424218	      3.11525133	     96.37630928	      1.68208392	     -6.38670558	     -3.50039367	      0.00000000	      0.00000000	    -55.83368635	     -0.59925508	    -21.96793628	     73.19556562	     -9.28536846	     64.19290696	     67.96378658	     57.58675488	      0.00000000	      0.00000000	     17.55871762	    -35.23469529	    -15.63188070	    100.66239616	     52.25739352	      0.00000000	      0.00000000
